<?xml version="1.0" encoding="UTF-8"?>
<svg width="1000" height="1000" xmlns="http://www.w3.org/2000/svg" xmlns:svg="http://www.w3.org/2000/svg">
 <title>Logo en rojo para taekwondo</title>
 <metadata id="metadata7">image/svg+xml</metadata>
 <g>
  <title>Layer 1</title>
  <g id="layer1">
   <path transform="rotate(-13.177900314331055 587.9999999999995,500.00003051757835) " id="path2996" d="m483.82678,796.43591c-7.32617,13.64569 -13.15381,27.52826 -13.73913,41.9668c0,0 2.80462,13.44574 -0.74939,18.48547c-3.72492,5.28205 -11.59101,6.30579 -17.98578,7.24415c-9.0177,1.32336 -16.6077,-4.04444 -29.22696,-3.24744c-16.05167,1.0141 -17.10208,5.11841 -25.72965,6.49505c-6.52142,1.04035 -15.71991,1.844 -22.23242,0.74939c-5.21936,-0.87738 -9.61987,-0.76367 -11.99054,-5.49572c-2.21692,-4.42511 -1.38248,-9.62488 1.99841,-13.23951c5.2194,-5.58026 14.57999,-6.55615 23.23163,-7.74395c10.26148,-1.40857 19.61203,-7.24073 28.22772,-12.98975c19.758,-13.18408 28.95642,-41.15643 27.72809,-40.71777c9.02866,-23.22248 7.0929,-51.91919 9.99213,-80.18665c2.17023,-21.15954 13.47464,-26.91876 20.23401,-31.4751c6.07904,-4.09777 -0.7171,-22.11822 1.20538,-32.07959c2.38263,-12.34509 13.53296,-13.13476 13.53296,-13.13476c0.46655,-3.9867 0.12671,-8.13483 3.74707,-11.49091c-1.89838,-29.53485 -4.59302,-59.58191 3.49719,-83.43402c2.7002,-7.96094 -3.52881,-5.95013 -5.74548,-4.74634c-34.09339,18.51691 -45.92413,-2.79046 -52.4585,-12.49011c-2.66199,-3.95129 -3.76825,-3.72583 -7.24432,-3.99677c-9.33344,1.20453 -16.06165,1.29267 -20.73358,0.49952c-1.57056,2.75177 -4.17499,5.15875 -7.7439,7.24432c-1.40683,7.16101 -4.91669,15.23608 -10.74149,21.48303c0,0 -12.32299,11.64167 -17.23642,18.48535c-3.4765,4.84229 -4.52389,11.29029 -8.49328,15.73755c-7.56757,8.47876 -16.80405,17.4104 -27.97791,19.48462c-10.62311,1.97199 -22.27618,-2.07654 -31.4751,-7.74383c-8.39691,-5.17316 -12.72467,-15.07361 -19.2348,-22.48224c-3.03552,-3.45441 -4.92639,-8.65552 -9.24273,-10.24194c-11.37848,-4.18189 -4.72596,-10.43464 -3.74701,-15.73755c1.11493,-6.03949 0.99603,-9.74829 -0.24982,-15.23792c-1.86578,-8.22119 -7.35858,-15.80151 -7.24426,-24.23083c0.08679,-6.39807 6.21673,-11.84082 5.99524,-18.2356c-0.08399,-2.42627 -2.58808,-4.32239 -2.74781,-6.74475c-0.13025,-1.97498 1.58405,-3.76807 1.49878,-5.74548c-0.28924,-6.7096 -6.38092,-12.27893 -6.74463,-18.98499c-0.54699,-10.08349 3.60566,-19.96387 6.99445,-29.47668c2.04956,-5.75339 3.54565,-12.30167 7.99371,-16.48697c1.11487,-1.04907 3.3797,-0.48688 4.24665,-1.7486c1.98095,-2.8833 -1.90253,-7.73401 0.24975,-10.49176c1.54126,-1.97467 5.31653,-0.39886 7.24433,-1.99841c3.20977,-2.66333 2.27014,-8.5968 5.49566,-11.24109c1.26514,-1.03717 3.52942,-0.15552 4.74622,-1.24902c1.39178,-1.25074 0.77704,-3.82825 1.99841,-5.24585c0.9978,-1.15802 3.99683,-2.24823 3.99683,-2.24823c1.34485,-5.91199 -0.00397,-11.82398 -1.24896,-17.73597c-6.19678,3.77405 -8.47602,-0.74688 -11.74073,-3.74707c-2.67541,-2.45861 -4.22705,-4.13818 -5.9953,-6.49487c-11.90631,-15.86841 -5.33557,-20.75238 -1.49878,-19.98419c0,0 -14.30737,-25.93115 -13.48938,-39.96845c0.49842,-8.55233 4.86438,-17.24404 10.99134,-23.23162c8.9309,-8.72773 21.73736,-15.02985 34.22296,-15.23798c15.2749,-0.25461 30.09164,8.27808 42.46643,17.23639c4.83063,3.49695 16.67914,26.9787 15.23794,39.46881c0,0 -0.04629,6.64978 0.99924,9.74231c0.96967,2.86804 4.74628,7.7439 4.74628,7.7439c0,0 12.4447,-11.24536 20.23401,-13.48938c5.92315,-1.70636 12.96692,3.24585 18.48535,0.49963c2.56512,-1.27655 2.42172,-5.73675 4.99609,-6.99451c10.78284,-5.268 25.18094,6.75098 35.97156,1.49884c2.9505,-1.43609 3.02234,-6.16278 5.74548,-7.99371c3.83808,-2.58044 8.8653,-3.15759 13.48932,-3.24744c2.12256,-0.0412 4.24323,1.95569 6.24506,1.24903c1.83978,-0.64942 1.8374,-4.09699 3.74707,-4.49646c3.46271,-0.72431 6.11322,3.69964 9.49249,4.74627c4.65698,1.44239 9.70203,1.07282 14.48859,1.99842c3.03363,0.58667 5.90686,2.40258 8.99286,2.24823c14.7575,-0.73804 26.99115,-16.20337 41.71704,-14.98816c6.46435,0.53348 11.29498,6.38153 16.98657,9.49249c4.80518,2.62647 10.37097,4.13385 14.48859,7.7439c4.08319,3.57989 5.12152,10.01727 9.49249,13.23956c5.29871,3.90613 12.23822,7.30487 18.73523,6.24506c9.97681,-1.62745 15.52795,-13.09308 24.23083,-18.2356c5.42273,-3.20429 12.05152,-4.16754 17.23639,-7.7439c1.93866,-1.33722 2.95252,-3.82519 4.99604,-4.99603c1.71734,-0.98395 4.25964,-0.19122 5.74548,-1.49884c5.52514,-4.86246 3.77435,-14.63586 8.24347,-20.48383c6.27966,-8.21716 18.28485,-10.64752 24.73047,-18.73516c5.17975,-6.49936 3.61041,-17.72263 10.24188,-22.73206c32.24475,-24.35751 104.82159,-67.93097 106.16614,-70.69415c1.48962,-3.06119 6.88342,0.88806 11.4909,11.24112c0,0 6.59284,-5.21402 9.74231,-7.99369c3.3562,-2.96206 5.83441,-7.0596 9.74231,-9.2427c5.94226,-3.31955 13.88343,-1.76804 19.73444,-5.24585c6.27283,-3.72855 15.07764,-13.72388 23.23163,-8.74311c10.87591,6.64341 10.84283,22.32172 11.4909,31.97477c0.3819,5.68841 -1.15497,11.34805 -1.99841,16.98657c-0.5509,3.68286 -0.71234,7.49661 -1.99841,10.9913c-2.00367,5.4447 -6.46863,7.56638 -13.48932,10.24191c-1.87854,0.71592 -1.99909,5.29435 -6.49488,4.74625c-4.86828,-0.59348 -11.4873,-4.59436 -11.24115,-9.49249c0.24134,-4.80109 6.54248,-2.59305 5.24585,-4.49643c-1.87493,-2.75235 1.66456,-5.31119 0.74946,-6.49488c-1.84516,-2.38662 -6.57752,-3.95254 -10.24195,-3.99685c-8.05963,-0.09738 -22.73205,8.2435 -22.73205,8.2435c1.83245,6.82727 7.79412,8.83716 5.49566,20.48379c-17.80517,19.02439 -20.72473,11.90122 -27.9779,20.73365c0,0 -19.95337,25.75308 -30.97553,37.72018c-15.23938,16.5459 -33.09509,30.53509 -48.46167,46.96289c-14.16595,15.14423 -25.49066,32.86389 -40.21826,47.46252c-13.31116,13.19458 -35.03332,19.10944 -43.21582,35.97156c-10.81573,22.28861 -42.72473,50.60672 -44.71472,47.71231c-2.98468,8.93543 -5.91388,17.98194 -8.24347,28.22766c0,0 7.3692,15.19227 6.74469,23.23169c-2.28784,29.45093 -25.47986,49.46094 -25.47986,49.46094c0,0 -9.32269,33.07617 -14.48858,49.46094c-3.83222,12.15466 -9.48816,23.77747 -12.2403,36.22131c-1.64624,7.44312 -0.50482,15.37433 -2.49805,22.73206c-1.54968,5.72046 -5.47491,10.58087 -7.24426,16.23718c-2.27692,7.27875 -2.83612,14.98718 -4.24664,22.4823c-1.00281,5.32843 -2.88275,10.56659 -2.99762,15.98731c-0.57465,27.11181 -1.39801,86.03155 -2.74787,86.93139c-21.57128,0.8866 -42.20636,-0.56701 -62.45068,-2.99768z" fill="#ff0000"/>
  </g>
 </g>
</svg>